<?xml version="1.0" standalone="no"?>
<!DOCTYPE svg PUBLIC "-//W3C//DTD SVG 20010904//EN"
 "http://www.w3.org/TR/2001/REC-SVG-20010904/DTD/svg10.dtd">
<svg version="1.0" xmlns="http://www.w3.org/2000/svg"
 width="191.000000pt" height="191.000000pt" viewBox="0 0 191.000000 191.000000"
 preserveAspectRatio="xMidYMid meet">
<metadata>
Created by potrace 1.11, written by Peter Selinger 2001-2013
</metadata>
<g transform="translate(0.000000,191.000000) scale(0.100000,-0.100000)"
fill="#000000" stroke="none">
<path d="M660 1309 c-24 -55 -48 -103 -52 -105 -4 -3 -45 11 -90 31 -45 19
-85 35 -90 35 -5 0 -16 -17 -25 -37 -8 -21 -25 -60 -38 -88 -12 -27 -25 -58
-29 -68 -5 -16 -11 -13 -43 21 -44 46 -80 58 -180 61 -84 2 -82 4 -81 -109 0
-46 -4 -76 -11 -78 -18 -6 -13 -23 6 -20 16 3 18 -8 20 -97 1 -55 2 -104 2
-108 1 -12 161 -6 191 6 14 6 35 19 46 29 21 19 23 18 80 -8 33 -14 73 -32 89
-39 17 -8 85 -39 153 -69 68 -31 125 -56 127 -56 2 0 39 -16 82 -36 110 -51
165 -75 168 -72 1 2 22 47 46 102 24 54 49 100 55 103 8 3 140 -52 176 -73 3
-2 18 21 32 51 l25 55 61 0 c56 0 60 1 51 18 -6 11 -12 31 -15 45 -4 23 -2 25
17 18 16 -6 23 -18 25 -45 l3 -36 50 0 c27 0 49 3 50 8 6 55 39 141 45 117 1
-5 10 -36 19 -67 l16 -58 50 0 c49 0 50 0 45 28 -3 15 -13 53 -22 84 -16 54
-16 59 -1 76 13 15 14 21 4 32 -10 10 -9 11 1 6 9 -5 17 2 25 23 11 29 14 31
64 31 29 0 53 4 53 8 0 5 -22 8 -50 7 -45 -1 -50 1 -55 24 -16 71 -72 99 -190
97 l-90 -1 2 -42 c1 -35 -2 -41 -15 -36 -38 13 -157 68 -163 75 -3 5 -15 10
-27 13 -22 4 -40 11 -370 159 -105 47 -193 86 -195 86 -1 0 -22 -45 -47 -101z
m977 -266 c3 -8 -6 -11 -23 -10 -15 1 -29 8 -32 15 -3 10 4 13 24 10 15 -2 29
-8 31 -15z m-7 -33 c0 -13 -11 -13 -30 0 -12 8 -11 10 8 10 12 0 22 -4 22 -10z
m50 -50 c-8 -5 -19 -10 -25 -10 -5 0 -3 5 5 10 8 5 20 10 25 10 6 0 3 -5 -5
-10z m-1490 -111 c0 -5 -9 -9 -20 -9 -11 0 -20 6 -20 14 0 9 7 12 20 9 11 -3
20 -9 20 -14z m1500 -73 c0 -3 -4 -8 -10 -11 -5 -3 -10 -1 -10 4 0 6 5 11 10
11 6 0 10 -2 10 -4z"/>
<path d="M1895 1040 c-4 -6 -11 -8 -16 -5 -5 4 -9 2 -9 -4 0 -5 9 -9 20 -8 11
1 20 7 20 14 0 16 -6 17 -15 3z"/>
</g>
</svg>
